<svg preserveAspectRatio="none" overflow="visible" style="display: block;" width="50" height="50" viewBox="0 0 50 50" fill="none" xmlns="http://www.w3.org/2000/svg">
<g id="Job Types">
<g id="Vector">
<path fill-rule="evenodd" clip-rule="evenodd" d="M8.4625 26.3703C8.8125 26.5781 9.23281 26.7016 9.68281 26.7031H40.3156C40.7656 26.7031 41.1859 26.5797 41.5469 26.3641L41.5359 26.3703L49.3609 21.75V16.6422C49.3547 14.9172 47.9594 13.5219 46.2344 13.5156H3.77031C2.04531 13.5219 0.65 14.9172 0.64375 16.6422V21.75L8.4625 26.3703ZM42.5578 28.0953C41.9156 28.4813 41.1406 28.7078 40.3141 28.7078H40.3062H31.1812V32.2078C31.1812 34.3641 29.4328 36.1109 27.2797 36.1109H22.7125C20.5562 36.1109 18.8109 34.3625 18.8109 32.2094V28.7078H9.68437H9.67656C8.85 28.7078 8.07656 28.4812 7.41406 28.0844L7.43437 28.0953L0.642188 24.0703V44.6219C0.648438 46.3469 2.04375 47.7422 3.76875 47.7484H46.2328C47.9578 47.7422 49.3531 46.3469 49.3594 44.6219V24.0703L42.5578 28.0953Z" fill="#3776BC"/>
<path d="M33.0266 11.8125C32.475 11.8125 32.0266 11.3641 32.0266 10.8125V6.93906C32.0266 5.45625 30.825 4.25156 29.3406 4.25H20.6547C19.1734 4.25156 17.9719 5.45469 17.9719 6.9375V10.8094C17.9719 11.3609 17.5234 11.8094 16.9719 11.8094C16.4203 11.8094 15.9719 11.3609 15.9719 10.8094V6.93906C15.9734 4.35312 18.0672 2.25625 20.6531 2.25H29.3391C31.9266 2.25469 34.025 4.35156 34.0266 6.93906V10.8094C34.0266 11.3609 33.5781 11.8125 33.0266 11.8125Z" fill="#F58220"/>
<path d="M27.2141 34.0516H22.7844C21.8609 34.05 21.1156 33.3031 21.1109 32.3828C21.1125 31.4594 21.8609 30.7141 22.7844 30.7125H24.9992H27.2141C28.1375 30.7141 28.8828 31.4609 28.8875 32.3812C28.8859 33.3047 28.1375 34.05 27.2141 34.0516Z" fill="#F58220"/>
</g>
</g>
</svg>
