<svg preserveAspectRatio="none" overflow="visible" style="display: block;" width="144" height="22.7297" viewBox="0 0 144 22.7297" fill="none" xmlns="http://www.w3.org/2000/svg">
<g id="Group">
<path id="Vector" d="M0 0.38235C1.19381 0.15346 2.92252 0 4.72875 0C7.19648 0 8.84508 0.413562 10.0182 1.38114C10.9588 2.17705 11.4937 3.37872 11.4937 4.86131C11.4937 7.09038 9.99238 8.59897 8.36704 9.16339V9.23882C9.61253 9.6992 10.349 10.9009 10.7547 12.5655C11.3154 14.7166 11.7728 16.7116 12.1035 17.3748H8.89934C8.64353 16.8676 8.21199 15.4553 7.75462 13.3094C7.24557 11.0569 6.45745 10.3417 4.67965 10.2896H3.1034V17.3748H0.00258259V0.38235H0ZM3.10082 7.98253H4.95614C7.0647 7.98253 8.36445 6.85629 8.36445 5.14222C8.36445 3.27468 7.06469 2.37733 5.03107 2.37733C4.0414 2.37733 3.40573 2.45276 3.10082 2.53079V7.98253Z" fill="#3777BC"/>
<path id="Vector_2" d="M15.6551 12.0343C15.73 14.2868 17.4613 15.2596 19.4691 15.2596C20.9187 15.2596 21.9368 15.0281 22.9032 14.6977L23.358 16.8462C22.2908 17.3066 20.8153 17.6421 19.0349 17.6421C15.0168 17.6421 12.6524 15.1581 12.6524 11.345C12.6524 7.89088 14.7377 4.6396 18.7042 4.6396C22.6707 4.6396 24.0453 7.9663 24.0453 10.7026C24.0453 11.2904 23.9937 11.7534 23.942 12.0343H15.6551ZM21.0944 9.83384C21.1228 8.68159 20.6112 6.78804 18.5259 6.78804C16.593 6.78804 15.7817 8.55153 15.6551 9.83384H21.0944Z" fill="#3777BC"/>
<path id="Vector_3" d="M25.5456 8.62957C25.5456 7.199 25.4965 5.99733 25.4474 4.92051H28.1658L28.3208 6.79064H28.3957C28.9539 5.81526 30.3027 4.6396 32.3622 4.6396C34.4217 4.6396 36.7602 6.04675 36.7602 9.9873V17.382H33.6335V10.3462C33.6335 8.55153 32.972 7.199 31.2692 7.199C30.0211 7.199 29.158 8.09636 28.8298 9.04573C28.7265 9.29803 28.6774 9.68038 28.6774 10.0419V17.3846H25.5481V8.63217L25.5456 8.62957Z" fill="#3777BC"/>
<path id="Vector_4" d="M42.5124 1.72221V4.91886H49.4634C49.4634 4.91886 48.1378 6.09192 45.4841 6.64594C43.7838 7.00228 42.5099 6.94246 42.5099 7.68375V12.7739C42.5099 14.3137 42.9155 15.081 44.1094 15.081C44.6675 15.081 44.975 15.055 45.329 14.9536L45.3807 17.3335C44.9233 17.513 44.0861 17.6639 43.1171 17.6639C41.9465 17.6639 41.0085 17.2789 40.422 16.6391C39.7346 15.9238 39.4297 14.7715 39.4297 13.1329V7.27278H37.6777V4.91886H39.4297V2.59095L42.5073 1.72221H42.5124Z" fill="#3777BC"/>
<path id="Vector_5" d="M65.6541 10.3522C65.5533 8.12315 65.4241 5.4389 65.45 3.10839H65.375C64.8143 5.20741 64.1037 7.53532 63.3388 9.71238L60.8194 17.1825H58.4292L56.1424 9.81382C55.4808 7.61335 54.8736 5.25943 54.4136 3.10839H54.362C54.2844 5.35827 54.1837 8.09974 54.0596 10.4537L53.6746 17.388H50.7521L51.902 0.140624H56.0209L58.2561 7.07494C58.8659 9.09593 59.4034 11.1429 59.8323 13.0625H59.9098C60.3672 11.1924 60.9512 9.07253 61.6127 7.04893L63.9771 0.140624H68.0443L69.0366 17.388H65.9849L65.6541 10.3522Z" fill="#3777BC"/>
<path id="Vector_6" d="M80.7733 14.3882C80.7733 15.5145 80.825 16.6147 80.9774 17.382H78.1557L77.9257 16.0009H77.8482C77.1117 16.9736 75.8146 17.6629 74.1866 17.6629C71.6956 17.6629 70.2951 15.8474 70.2951 13.9539C70.2951 10.8326 73.0703 9.22 77.6466 9.24601V9.04313C77.6466 8.22121 77.3133 6.86347 75.1272 6.86347C73.9101 6.86347 72.6362 7.24842 71.7964 7.78683L71.184 5.73723C72.1013 5.17541 73.7034 4.6396 75.6621 4.6396C79.6286 4.6396 80.7733 7.17299 80.7733 9.90927V14.3908V14.3882ZM77.7216 11.2904C75.5122 11.2644 73.4011 11.7274 73.4011 13.6183C73.4011 14.8486 74.1866 15.4104 75.1789 15.4104C76.4502 15.4104 77.3417 14.5937 77.6466 13.6964C77.7216 13.4649 77.7216 13.236 77.7216 13.0019V11.2878V11.2904Z" fill="#3777BC"/>
<path id="Vector_7" d="M83.0482 8.62957C83.0482 7.199 82.9966 5.99733 82.9475 4.92051H85.6658L85.8235 6.79064H85.8984C86.454 5.81526 87.8028 4.6396 89.8623 4.6396C91.9217 4.6396 94.2603 6.04675 94.2603 9.9873V17.382H91.1336V10.3462C91.1336 8.55153 90.4721 7.199 88.7692 7.199C87.5238 7.199 86.6581 8.09636 86.3274 9.04573C86.2266 9.29803 86.1749 9.68038 86.1749 10.0419V17.3846H83.0482V8.63217V8.62957Z" fill="#3777BC"/>
<path id="Vector_8" d="M106.211 14.3882C106.211 15.5145 106.263 16.6147 106.415 17.382H103.596L103.366 16.0009H103.288C102.552 16.9736 101.257 17.6629 99.6294 17.6629C97.1358 17.6629 95.7405 15.8474 95.7405 13.9539C95.7405 10.8326 98.5079 9.22 103.087 9.24601V9.04313C103.087 8.22121 102.756 6.86347 100.567 6.86347C99.3503 6.86347 98.0764 7.24842 97.2366 7.78683L96.6319 5.73723C97.5441 5.17541 99.1462 4.6396 101.105 4.6396C105.071 4.6396 106.213 7.17299 106.213 9.90927V14.3908L106.211 14.3882ZM103.162 11.2904C100.95 11.2644 98.8387 11.7274 98.8387 13.6183C98.8387 14.8486 99.6294 15.4104 100.616 15.4104C101.89 15.4104 102.779 14.5937 103.084 13.6964C103.159 13.4649 103.159 13.236 103.159 13.0019V11.2878L103.162 11.2904Z" fill="#3777BC"/>
<path id="Vector_9" d="M119.694 15.5639C119.694 18.1727 119.16 20.0454 117.862 21.2185C116.591 22.3734 114.787 22.7297 113.082 22.7297C111.506 22.7297 109.829 22.3734 108.761 21.7361L109.446 19.351C110.237 19.814 111.557 20.3003 113.059 20.3003C115.092 20.3003 116.619 19.2261 116.619 16.5393V15.4624H116.568C115.855 16.5653 114.609 17.3066 112.955 17.3066C109.878 17.3066 107.692 14.7472 107.692 11.2176C107.692 7.12358 110.333 4.6396 113.309 4.6396C115.219 4.6396 116.312 5.56036 116.896 6.58256H116.948L117.074 4.92051H119.793C119.741 5.76324 119.692 6.79064 119.692 8.50212V15.5665L119.694 15.5639ZM116.568 9.90667C116.568 9.59975 116.542 9.32144 116.464 9.06654C116.134 7.91429 115.245 7.04294 113.922 7.04294C112.167 7.04294 110.873 8.57755 110.873 11.1109C110.873 13.2386 111.937 14.9526 113.896 14.9526C115.066 14.9526 116.082 14.1853 116.439 13.0331C116.542 12.7262 116.568 12.2918 116.568 11.9329V9.90927V9.90667Z" fill="#3777BC"/>
<path id="Vector_10" d="M124.328 12.0343C124.403 14.2868 126.135 15.2596 128.142 15.2596C129.592 15.2596 130.605 15.0281 131.574 14.6977L132.034 16.8462C130.967 17.3066 129.489 17.6421 127.711 17.6421C123.693 17.6421 121.328 15.1581 121.328 11.345C121.328 7.89088 123.414 4.6396 127.38 4.6396C131.347 4.6396 132.721 7.9663 132.721 10.7026C132.721 11.2904 132.672 11.7534 132.618 12.0343H124.331H124.328ZM129.77 9.83384C129.796 8.68159 129.287 6.78804 127.202 6.78804C125.272 6.78804 124.455 8.55153 124.328 9.83384H129.77Z" fill="#3777BC"/>
<path id="Vector_11" d="M134.22 8.93917C134.22 7.24851 134.196 6.02343 134.121 4.92059H137.424V5.64628H144C144 5.64628 142.783 6.87396 139.801 7.68808C138.928 7.92737 137.349 7.91177 137.349 9.05622V17.3821H134.22V8.93917Z" fill="#3777BC"/>
</g>
</svg>
