<svg preserveAspectRatio="none" overflow="visible" style="display: block;" width="20" height="20" viewBox="0 0 20 20" fill="none" xmlns="http://www.w3.org/2000/svg">
<g id="tour">
<path id="Shape" d="M3.16663 18.3333V1.66667H4.83329V3.33333H16.5L14.8333 7.5L16.5 11.6667H4.83329V18.3333H3.16663ZM9.41663 9.16667C9.87496 9.16667 10.2673 9.00347 10.5937 8.67708C10.9201 8.3507 11.0833 7.95833 11.0833 7.5C11.0833 7.04167 10.9201 6.64931 10.5937 6.32292C10.2673 5.99653 9.87496 5.83333 9.41663 5.83333C8.95829 5.83333 8.56593 5.99653 8.23954 6.32292C7.91315 6.64931 7.74996 7.04167 7.74996 7.5C7.74996 7.95833 7.91315 8.3507 8.23954 8.67708C8.56593 9.00347 8.95829 9.16667 9.41663 9.16667ZM4.83329 10H14.0416L13.0416 7.5L14.0416 5H4.83329V10Z" fill="#3776BC"/>
</g>
</svg>
